<mxfile host="Electron" modified="2024-07-15T09:59:53.790Z" agent="Mozilla/5.0 (Windows NT 10.0; Win64; x64) AppleWebKit/537.36 (KHTML, like Gecko) draw.io/24.6.4 Chrome/124.0.6367.207 Electron/30.0.6 Safari/537.36" etag="gqDW_ll5C4iwRooWLQ_U" version="24.6.4" type="device">
  <diagram id="C5RBs43oDa-KdzZeNtuy" name="Page-1">
    <mxGraphModel dx="1290" dy="621" grid="1" gridSize="10" guides="1" tooltips="1" connect="1" arrows="1" fold="1" page="1" pageScale="1" pageWidth="827" pageHeight="1169" math="0" shadow="0">
      <root>
        <mxCell id="WIyWlLk6GJQsqaUBKTNV-0" />
        <mxCell id="WIyWlLk6GJQsqaUBKTNV-1" parent="WIyWlLk6GJQsqaUBKTNV-0" />
        <mxCell id="8CKF24P7JO0zsWD7J9R5-0" style="edgeStyle=orthogonalEdgeStyle;rounded=0;orthogonalLoop=1;jettySize=auto;html=1;entryX=0.5;entryY=0;entryDx=0;entryDy=0;" edge="1" parent="WIyWlLk6GJQsqaUBKTNV-1" source="8CKF24P7JO0zsWD7J9R5-1" target="8CKF24P7JO0zsWD7J9R5-18">
          <mxGeometry relative="1" as="geometry" />
        </mxCell>
        <mxCell id="8CKF24P7JO0zsWD7J9R5-1" value="EVALUATION DE LA MENACE" style="swimlane;whiteSpace=wrap;html=1;" vertex="1" parent="WIyWlLk6GJQsqaUBKTNV-1">
          <mxGeometry x="42" y="140" width="744" height="340" as="geometry">
            <mxRectangle x="42" y="140" width="210" height="30" as="alternateBounds" />
          </mxGeometry>
        </mxCell>
        <mxCell id="8CKF24P7JO0zsWD7J9R5-2" value="- Contrôler réputation&lt;br&gt;- Contrôle du rendu (URLScan.io)&lt;div&gt;- Contrôle des redirections&lt;/div&gt;" style="shape=document;whiteSpace=wrap;html=1;boundedLbl=1;" vertex="1" parent="8CKF24P7JO0zsWD7J9R5-1">
          <mxGeometry x="20" y="65" width="150" height="80" as="geometry" />
        </mxCell>
        <mxCell id="8CKF24P7JO0zsWD7J9R5-3" value="Site marchant, energies, suivi de colis, etc.&lt;strong&gt;&lt;br&gt;&lt;br&gt;&lt;/strong&gt;" style="shape=document;whiteSpace=wrap;html=1;boundedLbl=1;" vertex="1" parent="8CKF24P7JO0zsWD7J9R5-1">
          <mxGeometry x="35" y="175" width="120" height="70" as="geometry" />
        </mxCell>
        <mxCell id="8CKF24P7JO0zsWD7J9R5-6" value="Identifier le(s) service(s) offert(s) par le site" style="rounded=0;whiteSpace=wrap;html=1;" vertex="1" parent="8CKF24P7JO0zsWD7J9R5-1">
          <mxGeometry x="228" y="180" width="120" height="60" as="geometry" />
        </mxCell>
        <mxCell id="8CKF24P7JO0zsWD7J9R5-7" style="edgeStyle=orthogonalEdgeStyle;rounded=0;orthogonalLoop=1;jettySize=auto;html=1;entryX=0;entryY=0.5;entryDx=0;entryDy=0;" edge="1" parent="8CKF24P7JO0zsWD7J9R5-1" source="8CKF24P7JO0zsWD7J9R5-3" target="8CKF24P7JO0zsWD7J9R5-6">
          <mxGeometry relative="1" as="geometry" />
        </mxCell>
        <mxCell id="8CKF24P7JO0zsWD7J9R5-37" value="" style="edgeStyle=orthogonalEdgeStyle;rounded=0;orthogonalLoop=1;jettySize=auto;html=1;" edge="1" parent="8CKF24P7JO0zsWD7J9R5-1" source="8CKF24P7JO0zsWD7J9R5-10" target="8CKF24P7JO0zsWD7J9R5-6">
          <mxGeometry relative="1" as="geometry" />
        </mxCell>
        <mxCell id="8CKF24P7JO0zsWD7J9R5-10" value="Récuperer l&#39;URL" style="rounded=0;whiteSpace=wrap;html=1;" vertex="1" parent="8CKF24P7JO0zsWD7J9R5-1">
          <mxGeometry x="228" y="75" width="120" height="60" as="geometry" />
        </mxCell>
        <mxCell id="8CKF24P7JO0zsWD7J9R5-11" style="edgeStyle=orthogonalEdgeStyle;rounded=0;orthogonalLoop=1;jettySize=auto;html=1;entryX=0;entryY=0.5;entryDx=0;entryDy=0;" edge="1" parent="8CKF24P7JO0zsWD7J9R5-1" source="8CKF24P7JO0zsWD7J9R5-2" target="8CKF24P7JO0zsWD7J9R5-10">
          <mxGeometry relative="1" as="geometry" />
        </mxCell>
        <mxCell id="8CKF24P7JO0zsWD7J9R5-13" value="" style="edgeStyle=orthogonalEdgeStyle;rounded=0;orthogonalLoop=1;jettySize=auto;html=1;" edge="1" parent="8CKF24P7JO0zsWD7J9R5-1" source="8CKF24P7JO0zsWD7J9R5-14" target="8CKF24P7JO0zsWD7J9R5-16">
          <mxGeometry relative="1" as="geometry" />
        </mxCell>
        <mxCell id="8CKF24P7JO0zsWD7J9R5-14" value="Identifier le motif de l&#39;alerte" style="rounded=0;whiteSpace=wrap;html=1;" vertex="1" parent="8CKF24P7JO0zsWD7J9R5-1">
          <mxGeometry x="408" y="65" width="120" height="60" as="geometry" />
        </mxCell>
        <mxCell id="8CKF24P7JO0zsWD7J9R5-16" value="Virustotal, trafficlight (BitDefender), Rate Fortinet, etc." style="rounded=0;whiteSpace=wrap;html=1;" vertex="1" parent="8CKF24P7JO0zsWD7J9R5-1">
          <mxGeometry x="588" y="65" width="120" height="60" as="geometry" />
        </mxCell>
        <mxCell id="8CKF24P7JO0zsWD7J9R5-17" style="edgeStyle=orthogonalEdgeStyle;rounded=0;orthogonalLoop=1;jettySize=auto;html=1;entryX=0.5;entryY=0;entryDx=0;entryDy=0;" edge="1" parent="WIyWlLk6GJQsqaUBKTNV-1" source="8CKF24P7JO0zsWD7J9R5-18" target="8CKF24P7JO0zsWD7J9R5-24">
          <mxGeometry relative="1" as="geometry" />
        </mxCell>
        <mxCell id="8CKF24P7JO0zsWD7J9R5-18" value="LEVE DE DOUTE" style="swimlane;whiteSpace=wrap;html=1;" vertex="1" parent="WIyWlLk6GJQsqaUBKTNV-1">
          <mxGeometry x="40" y="530" width="748" height="180" as="geometry" />
        </mxCell>
        <mxCell id="8CKF24P7JO0zsWD7J9R5-19" value="Known issue ?" style="rhombus;whiteSpace=wrap;html=1;" vertex="1" parent="8CKF24P7JO0zsWD7J9R5-18">
          <mxGeometry x="58" y="60" width="92" height="90" as="geometry" />
        </mxCell>
        <mxCell id="8CKF24P7JO0zsWD7J9R5-20" value="Cas précédent ?" style="rhombus;whiteSpace=wrap;html=1;" vertex="1" parent="8CKF24P7JO0zsWD7J9R5-18">
          <mxGeometry x="214" y="60" width="92" height="90" as="geometry" />
        </mxCell>
        <mxCell id="8CKF24P7JO0zsWD7J9R5-24" value="ACTIONS / RECOMMANDATIONS" style="swimlane;whiteSpace=wrap;html=1;" vertex="1" parent="WIyWlLk6GJQsqaUBKTNV-1">
          <mxGeometry x="40" y="760" width="748" height="240" as="geometry" />
        </mxCell>
        <mxCell id="8CKF24P7JO0zsWD7J9R5-26" value="Demander le reclassement du domaine / URL" style="shape=process;whiteSpace=wrap;html=1;backgroundOutline=1;" vertex="1" parent="8CKF24P7JO0zsWD7J9R5-24">
          <mxGeometry x="22" y="50" width="120" height="60" as="geometry" />
        </mxCell>
        <mxCell id="8CKF24P7JO0zsWD7J9R5-27" style="edgeStyle=orthogonalEdgeStyle;rounded=0;orthogonalLoop=1;jettySize=auto;html=1;entryX=0.5;entryY=1;entryDx=0;entryDy=0;" edge="1" parent="8CKF24P7JO0zsWD7J9R5-24" source="8CKF24P7JO0zsWD7J9R5-28" target="8CKF24P7JO0zsWD7J9R5-26">
          <mxGeometry relative="1" as="geometry" />
        </mxCell>
        <mxCell id="8CKF24P7JO0zsWD7J9R5-28" value="Si la solution le permet." style="shape=document;whiteSpace=wrap;html=1;boundedLbl=1;" vertex="1" parent="8CKF24P7JO0zsWD7J9R5-24">
          <mxGeometry x="22" y="140" width="120" height="80" as="geometry" />
        </mxCell>
        <mxCell id="8CKF24P7JO0zsWD7J9R5-30" value="Ajout exclusion" style="shape=process;whiteSpace=wrap;html=1;backgroundOutline=1;" vertex="1" parent="8CKF24P7JO0zsWD7J9R5-24">
          <mxGeometry x="420" y="62.5" width="120" height="60" as="geometry" />
        </mxCell>
        <mxCell id="8CKF24P7JO0zsWD7J9R5-31" style="edgeStyle=orthogonalEdgeStyle;rounded=0;orthogonalLoop=1;jettySize=auto;html=1;entryX=1;entryY=0.5;entryDx=0;entryDy=0;" edge="1" parent="8CKF24P7JO0zsWD7J9R5-24" source="8CKF24P7JO0zsWD7J9R5-32" target="8CKF24P7JO0zsWD7J9R5-30">
          <mxGeometry relative="1" as="geometry" />
        </mxCell>
        <mxCell id="8CKF24P7JO0zsWD7J9R5-32" value="En allow ou block list suivant les résultats et retours" style="shape=document;whiteSpace=wrap;html=1;boundedLbl=1;" vertex="1" parent="8CKF24P7JO0zsWD7J9R5-24">
          <mxGeometry x="590" y="40" width="120" height="105" as="geometry" />
        </mxCell>
        <mxCell id="8CKF24P7JO0zsWD7J9R5-38" value="Maintient du blocage" style="shape=process;whiteSpace=wrap;html=1;backgroundOutline=1;" vertex="1" parent="8CKF24P7JO0zsWD7J9R5-24">
          <mxGeometry x="220" y="62.5" width="120" height="60" as="geometry" />
        </mxCell>
        <mxCell id="8CKF24P7JO0zsWD7J9R5-33" value="Playbook réalisé par Augmented Security Force - licence&amp;nbsp;CC0 1.0 UNIVERSAL" style="text;html=1;align=center;verticalAlign=middle;whiteSpace=wrap;rounded=0;" vertex="1" parent="WIyWlLk6GJQsqaUBKTNV-1">
          <mxGeometry x="40" y="1000" width="750" height="30" as="geometry" />
        </mxCell>
        <mxCell id="8CKF24P7JO0zsWD7J9R5-34" value="Playbook réalisé par Augmented Security Force - licence&amp;nbsp;CC0 1.0 UNIVERSAL" style="text;html=1;align=center;verticalAlign=middle;whiteSpace=wrap;rounded=0;" vertex="1" parent="WIyWlLk6GJQsqaUBKTNV-1">
          <mxGeometry x="40" y="490" width="350" height="30" as="geometry" />
        </mxCell>
        <mxCell id="8CKF24P7JO0zsWD7J9R5-35" value="Playbook réalisé par Augmented Security Force - licence&amp;nbsp;CC0 1.0 UNIVERSAL" style="text;html=1;align=center;verticalAlign=middle;whiteSpace=wrap;rounded=0;" vertex="1" parent="WIyWlLk6GJQsqaUBKTNV-1">
          <mxGeometry x="40" y="720" width="350" height="30" as="geometry" />
        </mxCell>
        <mxCell id="8CKF24P7JO0zsWD7J9R5-36" value="&lt;h1 style=&quot;margin-top: 0px;&quot;&gt;URL Malveillante&lt;/h1&gt;&lt;p style=&quot;text-align: justify;&quot;&gt;&lt;font style=&quot;font-size: 11px;&quot;&gt;Une alerte de &quot;URL Malveillante&quot; est une notification critique générée par les systèmes de sécurité lorsqu&#39;ils détectent qu&#39;une tentative d&#39;accès a été faite vers un site web ou une adresse URL connue pour héberger du contenu malveillant ou potentiellement dangereux. Ces URL peuvent être utilisées pour diffuser des logiciels malveillants, hameçonner des informations personnelles, ou exécuter des attaques de type &quot;drive-by download&quot; sur les utilisateurs.&lt;/font&gt;&lt;/p&gt;" style="text;html=1;whiteSpace=wrap;overflow=hidden;rounded=0;" vertex="1" parent="WIyWlLk6GJQsqaUBKTNV-1">
          <mxGeometry x="42" y="30" width="750" height="90" as="geometry" />
        </mxCell>
      </root>
    </mxGraphModel>
  </diagram>
</mxfile>
